<mxfile host="app.diagrams.net" agent="Mozilla/5.0 (X11; Linux x86_64; rv:132.0) Gecko/20100101 Firefox/132.0" version="24.7.10">
  <diagram name="Page-1" id="6FvFAxmBBunbsGVmaEY5">
    <mxGraphModel dx="989" dy="656" grid="1" gridSize="10" guides="1" tooltips="1" connect="1" arrows="1" fold="1" page="1" pageScale="1" pageWidth="850" pageHeight="1100" math="0" shadow="0">
      <root>
        <mxCell id="0" />
        <mxCell id="1" parent="0" />
        <mxCell id="cK8yq8kgXT7QbAq1-Elr-25" value="" style="rounded=0;whiteSpace=wrap;html=1;fontFamily=Helvetica;fontSize=11;labelBackgroundColor=default;strokeColor=none;fillColor=#D1D8EB;" vertex="1" parent="1">
          <mxGeometry x="350" y="80" width="320" height="430" as="geometry" />
        </mxCell>
        <mxCell id="cK8yq8kgXT7QbAq1-Elr-14" style="rounded=0;orthogonalLoop=1;jettySize=auto;html=1;entryX=0;entryY=0.5;entryDx=0;entryDy=0;endArrow=none;endFill=0;exitX=1;exitY=0.5;exitDx=0;exitDy=0;" edge="1" parent="1" source="cK8yq8kgXT7QbAq1-Elr-16" target="cK8yq8kgXT7QbAq1-Elr-13">
          <mxGeometry relative="1" as="geometry">
            <mxPoint x="220" y="270" as="sourcePoint" />
          </mxGeometry>
        </mxCell>
        <mxCell id="cK8yq8kgXT7QbAq1-Elr-23" value="" style="edgeStyle=orthogonalEdgeStyle;shape=connector;rounded=0;orthogonalLoop=1;jettySize=auto;html=1;strokeColor=default;align=center;verticalAlign=middle;fontFamily=Helvetica;fontSize=11;fontColor=default;labelBackgroundColor=default;endArrow=classicThin;endFill=1;entryX=1;entryY=0.5;entryDx=0;entryDy=0;exitX=1.007;exitY=0.584;exitDx=0;exitDy=0;exitPerimeter=0;dashed=1;" edge="1" parent="1" source="cK8yq8kgXT7QbAq1-Elr-9" target="cK8yq8kgXT7QbAq1-Elr-8">
          <mxGeometry relative="1" as="geometry">
            <Array as="points">
              <mxPoint x="570" y="395" />
              <mxPoint x="570" y="310" />
            </Array>
          </mxGeometry>
        </mxCell>
        <mxCell id="cK8yq8kgXT7QbAq1-Elr-8" value="Ejecutar microbenchmark " style="ellipse;whiteSpace=wrap;html=1;" vertex="1" parent="1">
          <mxGeometry x="400" y="280" width="150" height="60" as="geometry" />
        </mxCell>
        <mxCell id="cK8yq8kgXT7QbAq1-Elr-34" style="edgeStyle=none;shape=connector;rounded=0;orthogonalLoop=1;jettySize=auto;html=1;exitX=1;exitY=1;exitDx=0;exitDy=0;strokeColor=default;align=center;verticalAlign=middle;fontFamily=Helvetica;fontSize=11;fontColor=default;labelBackgroundColor=default;endArrow=none;endFill=0;" edge="1" parent="1" source="cK8yq8kgXT7QbAq1-Elr-9" target="cK8yq8kgXT7QbAq1-Elr-28">
          <mxGeometry relative="1" as="geometry" />
        </mxCell>
        <mxCell id="cK8yq8kgXT7QbAq1-Elr-9" value="Proporcionar datos de ejecución al servidor" style="ellipse;whiteSpace=wrap;html=1;" vertex="1" parent="1">
          <mxGeometry x="400" y="360" width="150" height="60" as="geometry" />
        </mxCell>
        <mxCell id="cK8yq8kgXT7QbAq1-Elr-35" style="edgeStyle=none;shape=connector;rounded=0;orthogonalLoop=1;jettySize=auto;html=1;exitX=1;exitY=0;exitDx=0;exitDy=0;strokeColor=default;align=center;verticalAlign=middle;fontFamily=Helvetica;fontSize=11;fontColor=default;labelBackgroundColor=default;endArrow=none;endFill=0;" edge="1" parent="1" source="cK8yq8kgXT7QbAq1-Elr-10" target="cK8yq8kgXT7QbAq1-Elr-28">
          <mxGeometry relative="1" as="geometry">
            <mxPoint x="749.9999999999998" y="440" as="targetPoint" />
          </mxGeometry>
        </mxCell>
        <mxCell id="cK8yq8kgXT7QbAq1-Elr-10" value="Visualizar datos históricos" style="ellipse;whiteSpace=wrap;html=1;" vertex="1" parent="1">
          <mxGeometry x="400" y="440" width="150" height="60" as="geometry" />
        </mxCell>
        <mxCell id="cK8yq8kgXT7QbAq1-Elr-12" value="Visualizar datos de ejecución" style="ellipse;whiteSpace=wrap;html=1;" vertex="1" parent="1">
          <mxGeometry x="400" y="200" width="150" height="60" as="geometry" />
        </mxCell>
        <mxCell id="cK8yq8kgXT7QbAq1-Elr-13" value="Crear microbenchmarks" style="ellipse;whiteSpace=wrap;html=1;" vertex="1" parent="1">
          <mxGeometry x="400" y="120" width="150" height="60" as="geometry" />
        </mxCell>
        <mxCell id="cK8yq8kgXT7QbAq1-Elr-17" value="" style="group;movable=1;resizable=1;rotatable=1;deletable=1;editable=1;locked=0;connectable=1;" vertex="1" connectable="0" parent="1">
          <mxGeometry x="100" y="260" width="120" height="120" as="geometry" />
        </mxCell>
        <mxCell id="cK8yq8kgXT7QbAq1-Elr-16" value="" style="rounded=0;whiteSpace=wrap;html=1;fontFamily=Helvetica;fontSize=11;fontColor=default;labelBackgroundColor=default;strokeColor=none;fillColor=none;" vertex="1" parent="cK8yq8kgXT7QbAq1-Elr-17">
          <mxGeometry width="120" height="120" as="geometry" />
        </mxCell>
        <mxCell id="cK8yq8kgXT7QbAq1-Elr-7" value="&lt;div&gt;Desarrollador&amp;nbsp;&lt;/div&gt;&lt;div&gt;/ Investigador&lt;/div&gt;" style="shape=umlActor;verticalLabelPosition=bottom;verticalAlign=top;html=1;outlineConnect=0;" vertex="1" parent="cK8yq8kgXT7QbAq1-Elr-17">
          <mxGeometry x="45" y="10" width="30" height="60" as="geometry" />
        </mxCell>
        <mxCell id="cK8yq8kgXT7QbAq1-Elr-18" style="edgeStyle=none;shape=connector;rounded=0;orthogonalLoop=1;jettySize=auto;html=1;exitX=1;exitY=0.5;exitDx=0;exitDy=0;entryX=0;entryY=0.5;entryDx=0;entryDy=0;strokeColor=default;align=center;verticalAlign=middle;fontFamily=Helvetica;fontSize=11;fontColor=default;labelBackgroundColor=default;endArrow=none;endFill=0;" edge="1" parent="1" source="cK8yq8kgXT7QbAq1-Elr-16" target="cK8yq8kgXT7QbAq1-Elr-12">
          <mxGeometry relative="1" as="geometry" />
        </mxCell>
        <mxCell id="cK8yq8kgXT7QbAq1-Elr-19" style="edgeStyle=none;shape=connector;rounded=0;orthogonalLoop=1;jettySize=auto;html=1;exitX=1;exitY=0.5;exitDx=0;exitDy=0;entryX=0;entryY=0.5;entryDx=0;entryDy=0;strokeColor=default;align=center;verticalAlign=middle;fontFamily=Helvetica;fontSize=11;fontColor=default;labelBackgroundColor=default;endArrow=none;endFill=0;" edge="1" parent="1" source="cK8yq8kgXT7QbAq1-Elr-16" target="cK8yq8kgXT7QbAq1-Elr-8">
          <mxGeometry relative="1" as="geometry" />
        </mxCell>
        <mxCell id="cK8yq8kgXT7QbAq1-Elr-20" style="edgeStyle=none;shape=connector;rounded=0;orthogonalLoop=1;jettySize=auto;html=1;exitX=1;exitY=0.5;exitDx=0;exitDy=0;entryX=0;entryY=0.5;entryDx=0;entryDy=0;strokeColor=default;align=center;verticalAlign=middle;fontFamily=Helvetica;fontSize=11;fontColor=default;labelBackgroundColor=default;endArrow=none;endFill=0;" edge="1" parent="1" source="cK8yq8kgXT7QbAq1-Elr-16" target="cK8yq8kgXT7QbAq1-Elr-9">
          <mxGeometry relative="1" as="geometry" />
        </mxCell>
        <mxCell id="cK8yq8kgXT7QbAq1-Elr-21" style="edgeStyle=none;shape=connector;rounded=0;orthogonalLoop=1;jettySize=auto;html=1;exitX=1;exitY=0.5;exitDx=0;exitDy=0;entryX=0;entryY=0.5;entryDx=0;entryDy=0;strokeColor=default;align=center;verticalAlign=middle;fontFamily=Helvetica;fontSize=11;fontColor=default;labelBackgroundColor=default;endArrow=none;endFill=0;" edge="1" parent="1" source="cK8yq8kgXT7QbAq1-Elr-16" target="cK8yq8kgXT7QbAq1-Elr-10">
          <mxGeometry relative="1" as="geometry" />
        </mxCell>
        <mxCell id="cK8yq8kgXT7QbAq1-Elr-24" value="&amp;lt;&amp;lt;extiende&amp;gt;&amp;gt;" style="text;html=1;align=center;verticalAlign=middle;resizable=0;points=[];autosize=1;strokeColor=none;fillColor=none;fontFamily=Helvetica;fontSize=11;labelBackgroundColor=none;" vertex="1" parent="1">
          <mxGeometry x="570" y="330" width="110" height="30" as="geometry" />
        </mxCell>
        <mxCell id="cK8yq8kgXT7QbAq1-Elr-26" value="&amp;lt;&amp;lt;sistema&amp;gt;&lt;br style=&quot;font-size: 14px;&quot;&gt;&lt;div style=&quot;font-size: 14px;&quot;&gt;µwgpu&lt;/div&gt;" style="text;html=1;align=center;verticalAlign=middle;whiteSpace=wrap;rounded=0;fontFamily=Helvetica;fontSize=14;fontColor=default;labelBackgroundColor=none;fontStyle=0" vertex="1" parent="1">
          <mxGeometry x="350" y="80" width="110" height="30" as="geometry" />
        </mxCell>
        <mxCell id="cK8yq8kgXT7QbAq1-Elr-33" value="" style="group" vertex="1" connectable="0" parent="1">
          <mxGeometry x="720" y="410" width="60" height="84" as="geometry" />
        </mxCell>
        <mxCell id="cK8yq8kgXT7QbAq1-Elr-28" value="" style="image;points=[];aspect=fixed;html=1;align=center;shadow=0;dashed=0;image=img/lib/allied_telesis/computer_and_terminals/Server_Desktop.svg;fontFamily=Helvetica;fontSize=11;fontColor=default;labelBackgroundColor=default;" vertex="1" parent="cK8yq8kgXT7QbAq1-Elr-33">
          <mxGeometry x="8.700000000000045" width="42.599999999999994" height="54" as="geometry" />
        </mxCell>
        <mxCell id="cK8yq8kgXT7QbAq1-Elr-32" value="Servidor" style="text;html=1;align=center;verticalAlign=middle;whiteSpace=wrap;rounded=0;fontFamily=Helvetica;fontSize=11;fontColor=default;labelBackgroundColor=default;" vertex="1" parent="cK8yq8kgXT7QbAq1-Elr-33">
          <mxGeometry y="54" width="60" height="30" as="geometry" />
        </mxCell>
      </root>
    </mxGraphModel>
  </diagram>
</mxfile>
